<?xml version="1.0" standalone="no"?>
<!DOCTYPE svg PUBLIC "-//W3C//DTD SVG 20010904//EN"
 "http://www.w3.org/TR/2001/REC-SVG-20010904/DTD/svg10.dtd">
<svg version="1.0" xmlns="http://www.w3.org/2000/svg"
 width="131.000000pt" height="131.000000pt" viewBox="0 0 131.000000 131.000000"
 preserveAspectRatio="xMidYMid meet">
<metadata>
Created by potrace 1.14, written by Peter Selinger 2001-2017
</metadata>
<g transform="translate(0.000000,131.000000) scale(0.100000,-0.100000)"
fill="#000000" stroke="none">
<path d="M5 998 c8 -24 195 -678 195 -683 0 -3 33 -5 73 -5 l74 0 62 218 c35
119 66 220 70 224 6 7 132 -403 131 -430 0 -11 52 -12 273 -9 149 3 277 6 283
8 30 7 91 59 112 94 25 45 28 121 6 165 -18 36 -57 70 -97 84 l-35 12 43 23
c56 30 79 75 73 146 -6 66 -37 111 -97 139 -40 18 -69 21 -228 24 l-183 4 0
-84 c0 -61 -10 -125 -37 -241 -20 -86 -40 -154 -44 -150 -6 7 -27 80 -104 378
-26 103 -19 95 -94 95 l-68 0 -47 -182 c-74 -283 -79 -298 -86 -293 -4 2 -12
30 -19 62 -7 32 -24 105 -38 163 -14 58 -27 114 -29 125 -2 11 -10 43 -17 70
l-13 50 -82 3 c-63 2 -81 0 -77 -10z m1076 -125 c38 -23 51 -60 34 -100 -18
-43 -44 -54 -130 -56 l-75 -3 0 63 c0 34 4 73 10 87 9 24 14 26 71 26 39 0 71
-6 90 -17z m23 -277 c50 -32 57 -104 15 -142 -16 -14 -41 -19 -115 -22 l-94
-4 0 94 0 95 84 -2 c61 -1 91 -6 110 -19z"/>
</g>
</svg>
